<svg width="53" height="53" viewBox="0 0 53 53" fill="none" xmlns="http://www.w3.org/2000/svg">
<g filter="url(#filter0_d_107_433)">
<path d="M22.9651 36.9219V33.2441C22.9651 32.3122 23.7229 31.555 24.6616 31.5492H28.1083C29.0512 31.5492 29.8156 32.308 29.8156 33.2441V36.9113C29.8156 37.7196 30.4724 38.3765 31.2866 38.3824H33.6381C34.7363 38.3852 35.7906 37.9541 36.5682 37.1841C37.3457 36.4141 37.7827 35.3685 37.7827 34.2782V23.8311C37.7827 22.9504 37.3895 22.1149 36.709 21.5498L28.7204 15.207C27.3239 14.0976 25.3295 14.1334 23.9744 15.2923L16.1576 21.5498C15.4449 22.0983 15.019 22.9362 14.9979 23.8311V34.2675C14.9979 36.5401 16.8535 38.3824 19.1426 38.3824H21.4404C21.8324 38.3852 22.2093 38.2326 22.4875 37.9584C22.7657 37.6842 22.9222 37.3111 22.9221 36.9219H22.9651Z" fill="#FACD66"/>
</g>
<defs>
<filter id="filter0_d_107_433" x="0.607513" y="0.00799561" width="51.5656" height="52.7649" filterUnits="userSpaceOnUse" color-interpolation-filters="sRGB">
<feFlood flood-opacity="0" result="BackgroundImageFix"/>
<feColorMatrix in="SourceAlpha" type="matrix" values="0 0 0 0 0 0 0 0 0 0 0 0 0 0 0 0 0 0 127 0" result="hardAlpha"/>
<feOffset/>
<feGaussianBlur stdDeviation="7.19521"/>
<feComposite in2="hardAlpha" operator="out"/>
<feColorMatrix type="matrix" values="0 0 0 0 0.980392 0 0 0 0 0.803921 0 0 0 0 0.4 0 0 0 0.25 0"/>
<feBlend mode="normal" in2="BackgroundImageFix" result="effect1_dropShadow_107_433"/>
<feBlend mode="normal" in="SourceGraphic" in2="effect1_dropShadow_107_433" result="shape"/>
</filter>
</defs>
</svg>
